PathFileType	4	(X/Y/Z)	C:\Users\Graham\Documents\MATLAB\MOtoNMS_v2_2\MyData\ElaboratedData\S7\22-05-17\staticElaborations\Static1\Static\\Static1.trc
DataRate	CameraRate	NumFrames	NumMarkers	Units	OrigDataRate	DataStartFrame
100	100	6	38	mm	100	2
Frame#	Time	V_Sacral			R_ASIS			L_ASIS			R_Knee_Lat			R_Knee_Med			R_Thigh_Upper			R_Thigh_Front			R_Thigh_Rear			L_Knee_Lat			L_Knee_Med			L_Thigh_Upper			L_Thigh_Front			L_Thigh_Rear			R_Ankle_Lat			R_Ankle_Med			R_Shank_Upper			R_Shank_Front			R_Shank_Rear			L_Ankle_Lat			L_Ankle_Med			L_Shank_Upper			L_Shank_Front			L_Shank_Rear			R_Heel			R_MTP1			R_MTP5			L_Heel			L_MTP1			L_MTP5			Clavicle			R_Acromium			L_Acromium			LAJC			RAJC			LHJC			RHJC			LKJC			RKJC		
		X1	Y1	Z1	X2	Y2	Z2	X3	Y3	Z3	X4	Y4	Z4	X5	Y5	Z5	X6	Y6	Z6	X7	Y7	Z7	X8	Y8	Z8	X9	Y9	Z9	X10	Y10	Z10	X11	Y11	Z11	X12	Y12	Z12	X13	Y13	Z13	X14	Y14	Z14	X15	Y15	Z15	X16	Y16	Z16	X17	Y17	Z17	X18	Y18	Z18	X19	Y19	Z19	X20	Y20	Z20	X21	Y21	Z21	X22	Y22	Z22	X23	Y23	Z23	X24	Y24	Z24	X25	Y25	Z25	X26	Y26	Z26	X27	Y27	Z27	X28	Y28	Z28	X29	Y29	Z29	X30	Y30	Z30	X31	Y31	Z31	X32	Y32	Z32	X33	Y33	Z33	X34	Y34	Z34	X35	Y35	Z35	X36	Y36	Z36	X37	Y37	Z37	X38	Y38	Z38	

158	1.570000	-339.538136	1053.290033	5.237352	-147.187526	1018.111456	147.809579	-169.766437	1015.980996	-124.144217	-208.023092	517.409210	172.404647	-206.485553	512.275341	60.040603	-129.686112	802.375375	108.433453	-154.326807	687.461043	73.952281	-133.865088	687.332256	150.255898	-231.213426	514.122317	-133.857667	-227.809318	508.622727	-15.544337	-139.414209	804.995581	-75.534658	-159.963811	690.392849	-30.009317	-144.133116	681.159786	-100.270814	-309.991394	81.445994	165.758878	-259.961097	82.110945	90.312289	-182.541397	347.055727	148.540305	-219.711083	241.909861	105.569756	-235.100799	241.400896	180.332515	-296.882274	72.035969	-107.105259	-254.608573	89.280435	-30.126648	-199.193220	333.379525	-107.150966	-221.029331	222.040501	-60.930876	-235.895629	222.351729	-130.719332	-353.031036	35.194872	103.149490	-140.747931	56.086449	168.531838	-165.269503	47.758731	227.656430	-342.875008	33.942276	-45.690102	-120.569306	51.644512	-95.888669	-156.026181	42.715952	-161.124591	-136.530307	1404.646462	4.901998	-230.062916	1471.814616	196.157379	-233.150463	1476.603306	-192.502251	-275.745423	80.658202	-68.615954	-284.976245	81.778470	128.035583	-237.805208	936.124107	-78.641394	-221.695157	937.644190	115.397607	-229.511372	511.372522	-74.701002	-207.254322	514.842276	116.222625	
159	1.580000	-339.533330	1053.268633	4.973968	-147.235934	1018.119092	147.631646	-169.693837	1015.958528	-124.339131	-208.008481	517.427805	172.271895	-206.461708	512.266566	59.894744	-129.623701	802.365972	108.322152	-154.300230	687.447440	73.816465	-133.893939	687.328212	150.140342	-231.149518	514.095566	-133.972301	-227.772217	508.657268	-15.601427	-139.343485	804.981796	-75.695686	-159.879329	690.403402	-30.160413	-144.060855	681.145156	-100.420559	-309.975736	81.475777	165.717084	-259.928705	82.100814	90.285503	-182.517225	347.080325	148.448375	-219.682434	241.922757	105.492187	-235.060456	241.423757	180.267335	-296.877092	72.034432	-107.113342	-254.607771	89.281418	-30.125946	-199.138601	333.353904	-107.208100	-221.007837	222.032428	-60.970203	-235.847485	222.329209	-130.784350	-353.005736	35.227637	103.130911	-140.716911	56.056453	168.526592	-165.242369	47.736954	227.651251	-342.876552	33.938983	-45.691491	-120.564807	51.633388	-95.882241	-156.022355	42.711837	-161.118928	-136.535301	1404.604360	4.768295	-230.202396	1471.792986	195.956572	-232.992791	1476.531386	-192.720571	-275.742432	80.657925	-68.619644	-284.952221	81.788296	128.001293	-237.748331	936.098981	-78.857007	-221.724651	937.640539	115.193727	-229.460868	511.376417	-74.786864	-207.235094	514.847186	116.083319	
160	1.590000	-339.541483	1053.253931	4.728501	-147.293377	1018.125224	147.465074	-169.636810	1015.938574	-124.515880	-208.005543	517.445966	172.151469	-206.458208	512.262412	59.758944	-129.570526	802.358015	108.220757	-154.296150	687.435554	73.690885	-133.936670	687.326425	150.035252	-231.098297	514.068370	-134.078978	-227.765421	508.684872	-15.647781	-139.300448	804.965096	-75.843333	-159.812821	690.419055	-30.299099	-144.008219	681.130938	-100.558006	-309.962463	81.503542	165.680144	-259.900916	82.093373	90.262356	-182.504378	347.106309	148.368248	-219.662773	241.937505	105.421946	-235.030062	241.445582	180.209301	-296.870105	72.033089	-107.121547	-254.606331	89.281336	-30.121995	-199.089976	333.328848	-107.256020	-220.992198	222.023400	-61.003996	-235.796983	222.305926	-130.847513	-352.981607	35.257393	103.114251	-140.688871	56.030161	168.522185	-165.219006	47.718351	227.647574	-342.877659	33.933972	-45.692524	-120.559758	51.618339	-95.874276	-156.017261	42.706606	-161.112894	-136.555756	1404.563441	4.656062	-230.344049	1471.770770	195.785993	-232.865929	1476.458026	-192.910085	-275.738218	80.657213	-68.621771	-284.931689	81.798458	127.971250	-237.708556	936.079918	-79.054731	-221.766555	937.640089	115.003213	-229.431859	511.376621	-74.863379	-207.231876	514.854189	115.955206	
161	1.600000	-339.561995	1053.244877	4.501371	-147.360348	1018.130365	147.312134	-169.595635	1015.919500	-124.673501	-208.018367	517.464449	172.043226	-206.479361	512.262897	59.633899	-129.539312	802.351193	108.126703	-154.316321	687.426167	73.575351	-133.995492	687.326647	149.939701	-231.055221	514.039736	-134.174317	-227.791514	508.706704	-15.681204	-139.283577	804.945254	-75.973392	-159.768309	690.437605	-30.420575	-143.974769	681.116099	-100.677237	-309.951648	81.529002	165.647865	-259.877067	82.088062	90.242611	-182.505238	347.134677	148.298747	-219.653534	241.954570	105.359078	-235.010199	241.466971	180.158406	-296.860710	72.031873	-107.128825	-254.604179	89.279362	-30.112773	-199.044907	333.303244	-107.290129	-220.982443	222.012329	-61.028196	-235.741300	222.279732	-130.902034	-352.958747	35.284372	103.099769	-140.663890	56.006846	168.518959	-165.199121	47.702194	227.645481	-342.878531	33.926323	-45.692507	-120.554183	51.598719	-95.863842	-156.010425	42.700920	-161.106003	-136.590968	1404.523322	4.560668	-230.485033	1471.749004	195.641148	-232.772146	1476.382006	-193.074942	-275.732444	80.655617	-68.620799	-284.914357	81.808532	127.945238	-237.685941	936.065132	-79.232857	-221.821085	937.642583	114.828639	-229.423367	511.373220	-74.927760	-207.248864	514.863673	115.838562	
162	1.610000	-339.594650	1053.240056	4.293329	-147.438014	1018.134830	147.175387	-169.571325	1015.899825	-124.811208	-208.049446	517.483938	171.946609	-206.527587	512.267831	59.520038	-129.538935	802.345494	108.038764	-154.361080	687.419973	73.469760	-134.071846	687.328614	149.852948	-231.015201	514.008818	-134.254958	-227.850603	508.723835	-15.699333	-139.290085	804.923013	-76.081847	-159.749184	690.456935	-30.520220	-143.959447	681.099974	-100.772670	-309.943002	81.552025	165.619760	-259.856699	82.084272	90.225745	-182.520833	347.166047	148.238111	-219.655393	241.974235	105.302979	-235.000245	241.488328	180.114067	-296.848481	72.030603	-107.134030	-254.601380	89.274635	-30.096148	-199.000563	333.275854	-107.306199	-220.978273	221.998022	-61.038875	-235.677691	222.248907	-130.942322	-352.937110	35.308992	103.087531	-140.641781	55.985748	168.516900	-165.182176	47.687837	227.644718	-342.879477	33.915094	-45.690706	-120.548281	51.573960	-95.850001	-156.001398	42.695782	-161.097809	-136.640214	1404.483539	4.478077	-230.622852	1471.728519	195.517772	-232.713053	1476.302441	-193.218942	-275.724930	80.652619	-68.615089	-284.899851	81.818148	127.922753	-237.681080	936.052660	-79.389886	-221.888952	937.647337	114.672676	-229.432902	511.366327	-74.977146	-207.288516	514.875884	115.733323	
163	1.620000	-339.639815	1053.237787	4.105391	-147.527931	1018.138845	147.057311	-169.565638	1015.878295	-124.928514	-208.099525	517.504953	171.860846	-206.603317	512.276879	59.417644	-129.574095	802.341189	107.957046	-154.429452	687.417525	73.374208	-134.166298	687.332148	149.774647	-230.972725	513.974964	-134.317962	-227.939777	508.737039	-15.699908	-139.316485	804.899954	-76.165286	-159.757585	690.475292	-30.594036	-143.960459	681.082353	-100.839593	-309.935977	81.572629	165.595144	-259.839561	82.081389	90.211066	-182.550881	347.200615	148.184308	-219.668276	241.996552	105.252605	-234.998629	241.509825	180.075307	-296.833235	72.028964	-107.136028	-254.598153	89.266318	-30.070093	-198.953889	333.245332	-107.300845	-220.978988	221.979206	-61.032645	-235.603832	222.212161	-130.964162	-352.916525	35.331773	103.077431	-140.622155	55.966156	168.515703	-165.167467	47.674753	227.644784	-342.880885	33.899399	-45.686426	-120.542419	51.543664	-95.831892	-155.989812	42.692460	-161.087952	-136.702827	1404.443544	4.405037	-230.755465	1471.709913	195.412100	-232.689494	1476.218601	-193.345413	-275.715694	80.647641	-68.603060	-284.887769	81.827009	127.903105	-237.695101	936.040504	-79.524593	-221.971150	937.653411	114.537862	-229.456251	511.356001	-75.008935	-207.351421	514.890916	115.639245	
